# xmcd
#
# Track frame offsets:
#	150
#	20590
#	36509
#	50646
#	64035
#	73295
#	95622
#	109418
#	124360
#	140441
#	158378
#
# Disc length: 2401 seconds
#
# Revision: 0
# Processed by: cddbd v1.5.2PL0 Copyright (c) Steve Scherf et al.
# Submitted via: EZCDAudioConverter 1.3.4.1
#
DISCID=a5095f0b
DTITLE=Spanish Gold - South Of Nowhere
DYEAR=1900
DGENRE=
TTITLE0=One Track Mind
TTITLE1=South Of Nowhere
TTITLE2=Out On The Street
TTITLE3=Movin' On
TTITLE4=Day Drinkin'
TTITLE5=Don't Leave Me Dry
TTITLE6=Ride On Up
TTITLE7=Lonely Ride
TTITLE8=Reach For Me
TTITLE9=Shangri La
TTITLE10=Stay With Me
EXTD=
EXTT0=
EXTT1=
EXTT2=
EXTT3=
EXTT4=
EXTT5=
EXTT6=
EXTT7=
EXTT8=
EXTT9=
EXTT10=
PLAYORDER=
